<svg xmlns="http://www.w3.org/2000/svg" version="1.1" xmlns:xlink="http://www.w3.org/1999/xlink" width="512" height="512" x="0" y="0" viewBox="0 0 512 512" style="enable-background:new 0 0 512 512" xml:space="preserve" class=""><g><path d="M322.451 504.5h88.66a6.027 6.027 0 0 0 6.016-6.392l-29.461-485.89a5.022 5.022 0 0 0-5.013-4.718H129.347a5.022 5.022 0 0 0-5.013 4.718l-29.461 485.89a6.027 6.027 0 0 0 6.016 6.392h88.66a6.027 6.027 0 0 0 5.962-5.147l45.501-308.401a15.15 15.15 0 0 1 29.976 0l45.501 308.401a6.027 6.027 0 0 0 5.962 5.147z" style="" fill="#8ac9fe" data-original="#8ac9fe"></path><path d="m417.127 498.108-29.461-485.89a5.022 5.022 0 0 0-5.013-4.718h-27a5.022 5.022 0 0 1 5.013 4.718l29.46 485.89a6.027 6.027 0 0 1-6.016 6.392h27a6.027 6.027 0 0 0 6.017-6.392z" style="" fill="#60b7ff" data-original="#60b7ff"></path><path d="M316.489 499.353a6.027 6.027 0 0 0 5.962 5.147h88.66a6.027 6.027 0 0 0 6.016-6.392l-1.536-25.339H312.567l3.922 26.584z" style="" fill="#fff2e2" data-original="#fff2e2"></path><path d="m417.127 498.108-1.536-25.339h-27l1.536 25.339a6.027 6.027 0 0 1-6.016 6.392h27a6.027 6.027 0 0 0 6.016-6.392z" style="" fill="#fedbbd" data-original="#fedbbd"></path><path d="M100.889 504.5h88.66a6.026 6.026 0 0 0 5.962-5.147l3.922-26.583H96.41l-1.536 25.339a6.026 6.026 0 0 0 6.015 6.391zM355.472 393.651a6.672 6.672 0 0 0 7.093-6.659v-4.248a6.67 6.67 0 0 0-3.993-6.11l-13.743-6.024a19.798 19.798 0 0 1-9.888-9.539l-4.731-9.816a20.612 20.612 0 0 0-18.112-11.658l-19.243-.425 7.524 50.995 55.093 3.484zM129.347 7.5a5.023 5.023 0 0 0-5.013 4.718l-1.631 26.899h266.594l-1.631-26.899a5.023 5.023 0 0 0-5.013-4.718H129.347z" style="" fill="#fff2e2" data-original="#fff2e2"></path><path d="m360.666 12.218 1.631 26.9h27l-1.631-26.899a5.023 5.023 0 0 0-5.013-4.718h-27a5.02 5.02 0 0 1 5.013 4.717z" style="" fill="#fedbbd" data-original="#fedbbd"></path><path d="m183.132 206.082-69.36-19.664-2.976 49.089 27.648-8.289a22.421 22.421 0 0 1 10.616-.551l8.304 1.576a24.595 24.595 0 0 0 24.459-9.678l3.812-5.231c1.917-2.63.628-6.364-2.503-7.252z" style="" fill="#fff2e2" data-original="#fff2e2"></path><path d="m393.909 115.188-6.243-102.969a5.022 5.022 0 0 0-5.013-4.718H129.347a5.022 5.022 0 0 0-5.013 4.718l-21.775 359.13" style="stroke-width:15;stroke-linecap:round;stroke-linejoin:round;stroke-miterlimit:10;" fill="none" stroke="#000000" stroke-width="15" stroke-linecap="round" stroke-linejoin="round" stroke-miterlimit="10" data-original="#000000" class=""></path><path d="m100.439 406.313-5.566 91.796a6.027 6.027 0 0 0 6.016 6.392h88.66a6.027 6.027 0 0 0 5.962-5.147l45.501-308.401a15.15 15.15 0 0 1 29.976 0l45.501 308.401a6.027 6.027 0 0 0 5.962 5.147h88.66a6.027 6.027 0 0 0 6.016-6.392L396.03 150.166M415.59 472.769H312.567M199.433 472.769H96.41M256 7.5v170.513M256 141.491h5.982c13.182 0 23.868-10.686 23.868-23.868V39.118M328.25 39.12v2.16c0 25.92 19.81 47.55 45.63 49.81l18.67 1.64M183.75 39.12v2.16c0 25.92-19.81 47.55-45.63 49.81l-18.67 1.64M143.685 297.271h40.064M147.685 324.771h20.774" style="stroke-width:15;stroke-linecap:round;stroke-linejoin:round;stroke-miterlimit:10;" fill="none" stroke="#000000" stroke-width="15" stroke-linecap="round" stroke-linejoin="round" stroke-miterlimit="10" data-original="#000000" class=""></path><path d="m300.379 390.166 55.092 3.485a6.672 6.672 0 0 0 7.093-6.659v-4.248a6.67 6.67 0 0 0-3.993-6.11l-13.743-6.024a19.798 19.798 0 0 1-9.888-9.539l-4.731-9.816a20.612 20.612 0 0 0-18.112-11.658l-19.243-.425M303.404 195.458h49.693M321.292 230.243h21.671M122.703 39.118h266.594M110.796 235.507l27.648-8.289a22.421 22.421 0 0 1 10.616-.551l8.304 1.576a24.595 24.595 0 0 0 24.459-9.678l3.812-5.231c1.916-2.629.627-6.364-2.503-7.251l-69.36-19.664" style="stroke-width:15;stroke-linecap:round;stroke-linejoin:round;stroke-miterlimit:10;" fill="none" stroke="#000000" stroke-width="15" stroke-linecap="round" stroke-linejoin="round" stroke-miterlimit="10" data-original="#000000" class=""></path></g></svg>