<svg xmlns="http://www.w3.org/2000/svg" version="1.1" xmlns:xlink="http://www.w3.org/1999/xlink" width="512" height="512" x="0" y="0" viewBox="0 0 682.667 682.667" style="enable-background:new 0 0 512 512" xml:space="preserve" class=""><g><defs><clipPath id="a" clipPathUnits="userSpaceOnUse"><path d="M0 512h512V0H0Z" fill="#000000" opacity="1" data-original="#000000"></path></clipPath></defs><g clip-path="url(#a)" transform="matrix(1.33333 0 0 -1.33333 0 682.667)"><path d="M0 0h-239.598v31.377c0 7.511 6.089 13.6 13.6 13.6H-13.6c7.511 0 13.6-6.089 13.6-13.6z" style="fill-opacity:1;fill-rule:nonzero;stroke:none" transform="translate(375.803 459.524)" fill="#acc8e8" data-original="#acc8e8" class=""></path><path d="M0 0h-22.023c7.51 0 13.598-6.088 13.598-13.599v-31.378H13.6v31.378C13.6-6.088 7.511 0 0 0" style="fill-opacity:1;fill-rule:nonzero;stroke:none" transform="translate(362.203 504.5)" fill="#94b9e3" data-original="#94b9e3"></path><path d="M0 0v-111.108l-38.749-305.178-3.116-24.526a12.83 12.83 0 0 0-12.728-11.213h-75.31c-7.349 0-13.197 6.161-12.814 13.499l1.161 22.24L-119.795 0Z" style="fill-opacity:1;fill-rule:nonzero;stroke:none" transform="translate(255.999 459.525)" fill="#acc8e8" data-original="#acc8e8" class=""></path><path d="M0 0a16.474 16.474 0 0 1-15.926-14.393l-36.967-291.142-3.116-24.526a12.83 12.83 0 0 0-12.728-11.213h22.024c6.46 0 11.913 4.804 12.728 11.213l3.116 24.526L7.88-.357v.556z" style="fill-opacity:1;fill-rule:nonzero;stroke:none" transform="translate(248.12 348.774)" fill="#94b9e3" data-original="#94b9e3"></path><path d="m0 0-3.12-24.53c-.81-6.4-6.26-11.21-12.72-11.21h-75.31c-7.35 0-13.2 6.16-12.82 13.5L-102.81 0Z" style="fill-opacity:1;fill-rule:nonzero;stroke:none" transform="translate(217.249 43.24)" fill="#d5e3f4" data-original="#d5e3f4"></path><path d="m0 0-3.12-24.53c-.81-6.4-6.26-11.21-12.72-11.21h-22.03c6.46 0 11.92 4.81 12.73 11.21L-22.02 0Z" style="fill-opacity:1;fill-rule:nonzero;stroke:none" transform="translate(217.249 43.24)" fill="#c0d6f1" data-original="#c0d6f1"></path><path d="M0 0v-111.108l38.749-305.178 3.116-24.526a12.831 12.831 0 0 1 12.728-11.213h75.31c7.349 0 13.197 6.161 12.814 13.499l-1.16 22.24L119.795 0Z" style="fill-opacity:1;fill-rule:nonzero;stroke:none" transform="translate(256.004 459.525)" fill="#acc8e8" data-original="#acc8e8" class=""></path><path d="m0 0-21.761 416.286h-22.024L-22.023 0l1.16-22.24c.384-7.338-5.464-13.499-12.813-13.499h22.024c7.348 0 13.196 6.161 12.813 13.499z" style="fill-opacity:1;fill-rule:nonzero;stroke:none" transform="translate(397.56 43.24)" fill="#94b9e3" data-original="#94b9e3"></path><path d="M0 0c.38-7.34-5.46-13.5-12.81-13.5h-75.31c-6.46 0-11.92 4.81-12.73 11.21l-3.12 24.53H-1.159Z" style="fill-opacity:1;fill-rule:nonzero;stroke:none" transform="translate(398.719 21)" fill="#d5e3f4" data-original="#d5e3f4"></path><path d="M0 0c.38-7.34-5.46-13.5-12.81-13.5h-22.03c7.351 0 13.2 6.16 12.82 13.5l-1.16 22.24h22.021z" style="fill-opacity:1;fill-rule:nonzero;stroke:none" transform="translate(398.719 21)" fill="#c0d6f1" data-original="#c0d6f1"></path><path d="M0 0h-239.598v31.377c0 7.511 6.089 13.6 13.6 13.6H-13.6c7.511 0 13.6-6.089 13.6-13.6z" style="stroke-width:15;stroke-linecap:round;stroke-linejoin:round;stroke-miterlimit:10;stroke-dasharray:none;stroke-opacity:1" transform="translate(375.803 459.524)" fill="none" stroke="#000000" stroke-width="15" stroke-linecap="round" stroke-linejoin="round" stroke-miterlimit="10" stroke-dasharray="none" stroke-opacity="" data-original="#000000" class=""></path><path d="M0 0v-111.108l-38.749-305.178-3.116-24.526a12.83 12.83 0 0 0-12.728-11.213h-75.31c-7.349 0-13.197 6.161-12.814 13.499l1.161 22.24L-119.795 0Z" style="stroke-width:15;stroke-linecap:round;stroke-linejoin:round;stroke-miterlimit:10;stroke-dasharray:none;stroke-opacity:1" transform="translate(255.999 459.525)" fill="none" stroke="#000000" stroke-width="15" stroke-linecap="round" stroke-linejoin="round" stroke-miterlimit="10" stroke-dasharray="none" stroke-opacity="" data-original="#000000" class=""></path><path d="M0 0h48.516l-3.117-24.525a12.829 12.829 0 0 0-12.727-11.214h-75.311c-7.348 0-13.196 6.161-12.813 13.499L-54.291 0h18.529" style="stroke-width:15;stroke-linecap:round;stroke-linejoin:round;stroke-miterlimit:10;stroke-dasharray:none;stroke-opacity:1" transform="translate(168.734 43.24)" fill="none" stroke="#000000" stroke-width="15" stroke-linecap="round" stroke-linejoin="round" stroke-miterlimit="10" stroke-dasharray="none" stroke-opacity="" data-original="#000000" class=""></path><path d="M0 0c49.564 0 51.748 70.072 51.748 70.072H3.663Z" style="stroke-width:15;stroke-linecap:round;stroke-linejoin:round;stroke-miterlimit:10;stroke-dasharray:none;stroke-opacity:1" transform="translate(132.541 389.452)" fill="none" stroke="#000000" stroke-width="15" stroke-linecap="round" stroke-linejoin="round" stroke-miterlimit="10" stroke-dasharray="none" stroke-opacity="" data-original="#000000" class=""></path><path d="m0 0-12.253 234.401h-119.795V123.293l38.749-305.178 3.116-24.525a12.832 12.832 0 0 1 12.728-11.214h75.31c7.349 0 13.197 6.161 12.814 13.499l-1.16 22.24L2.034-38.91" style="stroke-width:15;stroke-linecap:round;stroke-linejoin:round;stroke-miterlimit:10;stroke-dasharray:none;stroke-opacity:1" transform="translate(388.052 225.124)" fill="none" stroke="#000000" stroke-width="15" stroke-linecap="round" stroke-linejoin="round" stroke-miterlimit="10" stroke-dasharray="none" stroke-opacity="" data-original="#000000" class=""></path><path d="m0 0 3.116-24.525a12.831 12.831 0 0 1 12.728-11.214h75.31c7.349 0 13.197 6.161 12.814 13.499L102.808 0Z" style="stroke-width:15;stroke-linecap:round;stroke-linejoin:round;stroke-miterlimit:10;stroke-dasharray:none;stroke-opacity:1" transform="translate(294.753 43.24)" fill="none" stroke="#000000" stroke-width="15" stroke-linecap="round" stroke-linejoin="round" stroke-miterlimit="10" stroke-dasharray="none" stroke-opacity="" data-original="#000000" class=""></path><path d="M0 0c-49.564 0-51.747 70.072-51.747 70.072l48.084.002z" style="stroke-width:15;stroke-linecap:round;stroke-linejoin:round;stroke-miterlimit:10;stroke-dasharray:none;stroke-opacity:1" transform="translate(379.462 389.452)" fill="none" stroke="#000000" stroke-width="15" stroke-linecap="round" stroke-linejoin="round" stroke-miterlimit="10" stroke-dasharray="none" stroke-opacity="" data-original="#000000" class=""></path><path d="M0 0c35.073.074 34.67 43.38 34.67 43.38v67.728" style="stroke-width:15;stroke-linecap:round;stroke-linejoin:round;stroke-miterlimit:10;stroke-dasharray:none;stroke-opacity:1" transform="translate(256.004 348.418)" fill="none" stroke="#000000" stroke-width="15" stroke-linecap="round" stroke-linejoin="round" stroke-miterlimit="10" stroke-dasharray="none" stroke-opacity="" data-original="#000000" class=""></path><path d="M0 0v-44.977" style="stroke-width:15;stroke-linecap:round;stroke-linejoin:round;stroke-miterlimit:10;stroke-dasharray:none;stroke-opacity:1" transform="translate(205.433 504.5)" fill="none" stroke="#000000" stroke-width="15" stroke-linecap="round" stroke-linejoin="round" stroke-miterlimit="10" stroke-dasharray="none" stroke-opacity="" data-original="#000000" class=""></path><path d="M0 0v-44.977" style="stroke-width:15;stroke-linecap:round;stroke-linejoin:round;stroke-miterlimit:10;stroke-dasharray:none;stroke-opacity:1" transform="translate(306.463 504.5)" fill="none" stroke="#000000" stroke-width="15" stroke-linecap="round" stroke-linejoin="round" stroke-miterlimit="10" stroke-dasharray="none" stroke-opacity="" data-original="#000000" class=""></path><path d="M0 0v18.408" style="stroke-width:15;stroke-linecap:round;stroke-linejoin:round;stroke-miterlimit:10;stroke-dasharray:none;stroke-opacity:1" transform="translate(256.004 486.093)" fill="none" stroke="#000000" stroke-width="15" stroke-linecap="round" stroke-linejoin="round" stroke-miterlimit="10" stroke-dasharray="none" stroke-opacity="" data-original="#000000" class=""></path><path d="M0 0s32.651-12.697 72.156 0" style="stroke-width:15;stroke-linecap:round;stroke-linejoin:round;stroke-miterlimit:10;stroke-dasharray:none;stroke-opacity:1" transform="translate(315.896 225.124)" fill="none" stroke="#000000" stroke-width="15" stroke-linecap="round" stroke-linejoin="round" stroke-miterlimit="10" stroke-dasharray="none" stroke-opacity="" data-original="#000000" class=""></path><path d="M0 0s24.022-9.762 51.02 0" style="stroke-width:15;stroke-linecap:round;stroke-linejoin:round;stroke-miterlimit:10;stroke-dasharray:none;stroke-opacity:1" transform="translate(153.225 216.645)" fill="none" stroke="#000000" stroke-width="15" stroke-linecap="round" stroke-linejoin="round" stroke-miterlimit="10" stroke-dasharray="none" stroke-opacity="" data-original="#000000" class=""></path><path d="M0 0s24.023-9.761 51.021 0" style="stroke-width:15;stroke-linecap:round;stroke-linejoin:round;stroke-miterlimit:10;stroke-dasharray:none;stroke-opacity:1" transform="translate(158.778 311.36)" fill="none" stroke="#000000" stroke-width="15" stroke-linecap="round" stroke-linejoin="round" stroke-miterlimit="10" stroke-dasharray="none" stroke-opacity="" data-original="#000000" class=""></path></g></g></svg>