<svg xmlns="http://www.w3.org/2000/svg" version="1.1" xmlns:xlink="http://www.w3.org/1999/xlink" width="512" height="512" x="0" y="0" viewBox="0 0 682.667 682.667" style="enable-background:new 0 0 512 512" xml:space="preserve" class=""><g><defs><clipPath id="a" clipPathUnits="userSpaceOnUse"><path d="M0 512h512V0H0Z" fill="#000000" opacity="1" data-original="#000000"></path></clipPath></defs><g clip-path="url(#a)" transform="matrix(1.33333 0 0 -1.33333 0 682.667)"><path d="m0 0-54.341-4.787a885.48 885.48 0 0 0-154.757-.056L-264.596.005a6.72 6.72 0 0 1-7.277-6.082l-6.642-72.565a1258.944 1258.944 0 0 1-5.235-118.218l.816-296.141h107.567l38.759 291.516c.67 5.036 7.956 5.036 8.625 0l38.758-291.516H18.342l.817 296.141a1258.607 1258.607 0 0 1-5.236 118.218L7.282-6.082A6.72 6.72 0 0 1 0 0" style="fill-opacity:1;fill-rule:nonzero;stroke:none" transform="translate(388.296 504.469)" fill="#96b7e1" data-original="#96b7e1"></path><path d="M0 0v-83.957c17.082 0 30.93 13.848 30.93 30.93V.5A935.41 935.41 0 0 0 0 0" style="fill-opacity:1;fill-rule:nonzero;stroke:none" transform="translate(256 453.805)" fill="#79a9da" data-original="#79a9da"></path><path d="m0 0-6.641 72.56a6.72 6.72 0 0 1-7.282 6.082l-54.341-4.788c-2.322-.204-4.645-.388-6.968-.575l6.913-42.041 3.738-18.657A54.842 54.842 0 0 1-26.48-29.198l29.355-8.754A1257.981 1257.981 0 0 1 0 0" style="fill-opacity:1;fill-rule:nonzero;stroke:none" transform="translate(402.219 425.827)" fill="#79a9da" data-original="#79a9da"></path><path d="m0 0-55.498 4.848a6.72 6.72 0 0 1-7.277-6.082l-6.642-72.565c-1.156-12.637-2.1-25.29-2.874-37.953l29.357 8.755A54.838 54.838 0 0 1-4.833-61.218l3.739 18.657L5.686-.466C3.791-.312 1.895-.166 0 0" style="fill-opacity:1;fill-rule:nonzero;stroke:none" transform="translate(179.198 499.626)" fill="#79a9da" data-original="#79a9da"></path><path d="M0 0c.281 2.111 1.727 3.325 3.358 3.666-22.98-2.606-41.312-20.513-44.371-43.52l-33.46-251.662h35.714z" style="fill-opacity:1;fill-rule:nonzero;stroke:none" transform="translate(251.688 302.983)" fill="#79a9da" data-original="#79a9da"></path><path d="M0 0Z" style="fill-opacity:1;fill-rule:nonzero;stroke:none" transform="translate(256 306.76)" fill="#62d8f9" data-original="#62d8f9"></path><path d="m0 0-6.641 72.56a6.72 6.72 0 0 1-7.282 6.082l-28.757-2.534L-35.714 0a1258.628 1258.628 0 0 0 5.236-118.219l-.817-296.14H4.419l.817 296.14A1258.628 1258.628 0 0 1 0 0" style="fill-opacity:1;fill-rule:nonzero;stroke:none" transform="translate(402.219 425.827)" fill="#79a9da" data-original="#79a9da"></path><path d="M0 0c.81-8.838 1.511-17.684 2.133-26.534a54.784 54.784 0 0 1 7.1-2.664l29.356-8.754A1261.257 1261.257 0 0 1 35.714 0l-6.641 72.56a6.72 6.72 0 0 1-7.282 6.082l-28.757-2.534Z" style="fill-opacity:1;fill-rule:nonzero;stroke:none" transform="translate(366.505 425.827)" fill="#5f96d3" data-original="#5f96d3"></path><path d="M0 0a937.703 937.703 0 0 1 163.912.06l60.27 5.308-3.264 35.659a6.718 6.718 0 0 1-7.282 6.082l-54.341-4.787a885.48 885.48 0 0 0-154.757-.055l-55.497 4.847a6.72 6.72 0 0 1-7.278-6.082L-61.5 5.373Z" style="fill-opacity:1;fill-rule:nonzero;stroke:none" transform="translate(174.66 457.36)" fill="#e7ab8a" data-original="#e7ab8a"></path><path d="m0 0 35.429 3.12-3.264 35.659a6.72 6.72 0 0 1-7.282 6.082l-28.757-2.533Z" style="fill-opacity:1;fill-rule:nonzero;stroke:none" transform="translate(363.413 459.607)" fill="#df9874" data-original="#df9874"></path><path d="m0 0-.06 21.785a7.16 7.16 0 0 0 7.16 7.18h104.317c4.303 0 7.634-3.769 7.106-8.039L115.829-.859a7.162 7.162 0 0 0-7.106-6.282H7.16A7.16 7.16 0 0 0 0 0" style="fill-opacity:1;fill-rule:nonzero;stroke:none" transform="translate(101.385 14.64)" fill="#79a9da" data-original="#79a9da"></path><path d="M0 0h-31.315l-4.273-32.138-.641-3.967h33.534a7.16 7.16 0 0 1 7.106 6.281L7.105-8.039C7.634-3.769 4.303 0 0 0" style="fill-opacity:1;fill-rule:nonzero;stroke:none" transform="translate(212.803 43.605)" fill="#5f96d3" data-original="#5f96d3"></path><path d="m0 0-2.694 21.785c-.529 4.271 2.802 8.039 7.105 8.039h104.317a7.161 7.161 0 0 0 7.16-7.179l-.06-21.786a7.16 7.16 0 0 0-7.16-7.14H7.106A7.16 7.16 0 0 0 0 0" style="fill-opacity:1;fill-rule:nonzero;stroke:none" transform="translate(294.787 13.781)" fill="#79a9da" data-original="#79a9da"></path><path d="M0 0a7.16 7.16 0 0 1 7.16 7.141l.06 21.785a7.16 7.16 0 0 1-7.16 7.179h-32.459L-32.493 0Z" style="fill-opacity:1;fill-rule:nonzero;stroke:none" transform="translate(403.455 7.5)" fill="#5f96d3" data-original="#5f96d3"></path><path d="M0 0v-145.106" style="stroke-width:15;stroke-linecap:round;stroke-linejoin:round;stroke-miterlimit:10;stroke-dasharray:none;stroke-opacity:1" transform="translate(256 496.27)" fill="none" stroke="#000000" stroke-width="15" stroke-linecap="round" stroke-linejoin="round" stroke-miterlimit="10" stroke-dasharray="none" stroke-opacity="" data-original="#000000" class=""></path><path d="m0 0-4.082 42.31" style="stroke-width:15;stroke-linecap:round;stroke-linejoin:round;stroke-miterlimit:10;stroke-dasharray:none;stroke-opacity:1" transform="translate(348.57 458.3)" fill="none" stroke="#000000" stroke-width="15" stroke-linecap="round" stroke-linejoin="round" stroke-miterlimit="10" stroke-dasharray="none" stroke-opacity="" data-original="#000000" class=""></path><path d="m0 0-4.632-42.259" style="stroke-width:15;stroke-linecap:round;stroke-linejoin:round;stroke-miterlimit:10;stroke-dasharray:none;stroke-opacity:1" transform="translate(167.516 500.647)" fill="none" stroke="#000000" stroke-width="15" stroke-linecap="round" stroke-linejoin="round" stroke-miterlimit="10" stroke-dasharray="none" stroke-opacity="" data-original="#000000" class=""></path><path d="M0 0v0c17.082 0 30.93 13.848 30.93 30.93v53.527" style="stroke-width:15;stroke-linecap:round;stroke-linejoin:round;stroke-miterlimit:10;stroke-dasharray:none;stroke-opacity:1" transform="translate(256 369.848)" fill="none" stroke="#000000" stroke-width="15" stroke-linecap="round" stroke-linejoin="round" stroke-miterlimit="10" stroke-dasharray="none" stroke-opacity="" data-original="#000000" class=""></path><path d="m0 0 3.731-18.625a54.843 54.843 0 0 1 38.101-41.779l29.356-8.754" style="stroke-width:15;stroke-linecap:round;stroke-linejoin:round;stroke-miterlimit:10;stroke-dasharray:none;stroke-opacity:1" transform="translate(333.906 457.033)" fill="none" stroke="#000000" stroke-width="15" stroke-linecap="round" stroke-linejoin="round" stroke-miterlimit="10" stroke-dasharray="none" stroke-opacity="" data-original="#000000" class=""></path><path d="m0 0 29.357 8.755a54.838 54.838 0 0 1 38.101 41.779l3.739 18.657.002.012" style="stroke-width:15;stroke-linecap:round;stroke-linejoin:round;stroke-miterlimit:10;stroke-dasharray:none;stroke-opacity:1" transform="translate(106.907 387.874)" fill="none" stroke="#000000" stroke-width="15" stroke-linecap="round" stroke-linejoin="round" stroke-miterlimit="10" stroke-dasharray="none" stroke-opacity="" data-original="#000000" class=""></path><path d="m0 0 .73 264.77c.011 4.082.002 8.163-.026 12.244" style="stroke-width:15;stroke-linecap:round;stroke-linejoin:round;stroke-miterlimit:10;stroke-dasharray:none;stroke-opacity:1" transform="translate(406.725 42.839)" fill="none" stroke="#000000" stroke-width="15" stroke-linecap="round" stroke-linejoin="round" stroke-miterlimit="10" stroke-dasharray="none" stroke-opacity="" data-original="#000000" class=""></path><path d="m0 0 34.669 260.754c.67 5.036 7.956 5.036 8.625 0L77.963 0" style="stroke-width:15;stroke-linecap:round;stroke-linejoin:round;stroke-miterlimit:10;stroke-dasharray:none;stroke-opacity:1" transform="translate(217.019 42.23)" fill="none" stroke="#000000" stroke-width="15" stroke-linecap="round" stroke-linejoin="round" stroke-miterlimit="10" stroke-dasharray="none" stroke-opacity="" data-original="#000000" class=""></path><path d="M0 0h55.231c4.303 0 7.634-3.769 7.106-8.039l-2.695-21.785a7.16 7.16 0 0 0-7.106-6.281H-49.027a7.16 7.16 0 0 0-7.16 7.14l-.059 21.785A7.16 7.16 0 0 0-49.086 0h14.58" style="stroke-width:15;stroke-linecap:round;stroke-linejoin:round;stroke-miterlimit:10;stroke-dasharray:none;stroke-opacity:1" transform="translate(157.572 43.605)" fill="none" stroke="#000000" stroke-width="15" stroke-linecap="round" stroke-linejoin="round" stroke-miterlimit="10" stroke-dasharray="none" stroke-opacity="" data-original="#000000" class=""></path><path d="m0 0-2.694 21.785c-.529 4.271 2.802 8.039 7.105 8.039h104.317a7.161 7.161 0 0 0 7.16-7.179l-.06-21.786a7.16 7.16 0 0 0-7.16-7.14H7.106A7.16 7.16 0 0 0 0 0Z" style="stroke-width:15;stroke-linecap:round;stroke-linejoin:round;stroke-miterlimit:10;stroke-dasharray:none;stroke-opacity:1" transform="translate(294.787 13.781)" fill="none" stroke="#000000" stroke-width="15" stroke-linecap="round" stroke-linejoin="round" stroke-miterlimit="10" stroke-dasharray="none" stroke-opacity="" data-original="#000000" class=""></path><path d="M0 0c18.089-.397 36.185-.403 54.274-.016 8.16.175 14.679 6.854 14.679 15.015v26.593c0 8.427-6.934 15.183-15.359 14.997-17.63-.391-35.267-.387-52.897.013-8.427.19-15.367-6.568-15.367-14.998V15.015C-14.67 6.857-8.156.18 0 0" style="fill-opacity:1;fill-rule:nonzero;stroke:none" transform="translate(228.858 447.184)" fill="#f0f0f3" data-original="#f0f0f3"></path><path d="m0 0 61.5-5.373a938.352 938.352 0 0 1 41.574-2.7" style="stroke-width:15;stroke-linecap:round;stroke-linejoin:round;stroke-miterlimit:10;stroke-dasharray:none;stroke-opacity:1" transform="translate(113.16 462.732)" fill="none" stroke="#000000" stroke-width="15" stroke-linecap="round" stroke-linejoin="round" stroke-miterlimit="10" stroke-dasharray="none" stroke-opacity="" data-original="#000000" class=""></path><path d="M0 0a937.065 937.065 0 0 1 42.806 2.777l60.27 5.309" style="stroke-width:15;stroke-linecap:round;stroke-linejoin:round;stroke-miterlimit:10;stroke-dasharray:none;stroke-opacity:1" transform="translate(295.766 454.642)" fill="none" stroke="#000000" stroke-width="15" stroke-linecap="round" stroke-linejoin="round" stroke-miterlimit="10" stroke-dasharray="none" stroke-opacity="" data-original="#000000" class=""></path><path d="M0 0a1258.635 1258.635 0 0 1-4.483 71.096l-6.641 72.559a6.72 6.72 0 0 1-7.282 6.082l-54.341-4.787a884.611 884.611 0 0 0-38.691-2.555" style="stroke-width:15;stroke-linecap:round;stroke-linejoin:round;stroke-miterlimit:10;stroke-dasharray:none;stroke-opacity:1" transform="translate(406.702 354.731)" fill="none" stroke="#000000" stroke-width="15" stroke-linecap="round" stroke-linejoin="round" stroke-miterlimit="10" stroke-dasharray="none" stroke-opacity="" data-original="#000000" class=""></path><path d="M0 0a886.32 886.32 0 0 0-37.547 2.473L-93.045 7.32a6.719 6.719 0 0 1-7.277-6.082l-6.642-72.564a1258.966 1258.966 0 0 1-5.235-118.219l.73-264.769" style="stroke-width:15;stroke-linecap:round;stroke-linejoin:round;stroke-miterlimit:10;stroke-dasharray:none;stroke-opacity:1" transform="translate(216.745 497.153)" fill="none" stroke="#000000" stroke-width="15" stroke-linecap="round" stroke-linejoin="round" stroke-miterlimit="10" stroke-dasharray="none" stroke-opacity="" data-original="#000000" class=""></path><path d="M0 0c18.089-.397 36.185-.403 54.274-.016 8.16.175 14.679 6.854 14.679 15.015v26.593c0 8.427-6.934 15.183-15.359 14.997-17.63-.391-35.267-.387-52.897.013-8.427.19-15.367-6.568-15.367-14.998V15.015C-14.67 6.857-8.156.18 0 0Z" style="stroke-width:15;stroke-linecap:round;stroke-linejoin:round;stroke-miterlimit:10;stroke-dasharray:none;stroke-opacity:1" transform="translate(228.858 447.184)" fill="none" stroke="#000000" stroke-width="15" stroke-linecap="round" stroke-linejoin="round" stroke-miterlimit="10" stroke-dasharray="none" stroke-opacity="" data-original="#000000" class=""></path></g></g></svg>