<svg xmlns="http://www.w3.org/2000/svg" version="1.1" xmlns:xlink="http://www.w3.org/1999/xlink" width="512" height="512" x="0" y="0" viewBox="0 0 128 128" style="enable-background:new 0 0 512 512" xml:space="preserve" class=""><g><path fill="#6fb7ce" d="m91.15 119.92-.12 4.04a2 2 0 0 1-2 1.93H74.914a2.006 2.006 0 0 1-1.994-1.79l-.29-2.68-.32-2.98-8.02-75.33a.292.292 0 0 0-.58 0l-8.02 75.33-.32 2.98-.29 2.68a2.006 2.006 0 0 1-1.994 1.79H38.97a2 2 0 0 1-2-1.93l-.12-4.04c-.5-16.72-1.8-63.88-1.05-80.62.38-8.36 1.85-20.48 2.92-28.51.38-2.84.71-5.18.92-6.65a1.993 1.993 0 0 1 1.98-1.7h44.76a1.993 1.993 0 0 1 1.98 1.7c.13.93.78 5.62.92 6.65.51 3.81 1.11 8.56 1.64 13.38.58 5.32 1.08 10.74 1.28 15.13.75 16.74-.55 63.9-1.05 80.62z" opacity="1" data-original="#6fb7ce" class=""></path><path fill="#5a9fba" d="M36.85 119.92h18.68l-.45 4.183a2 2 0 0 1-1.99 1.787H38.97a2 2 0 0 1-2-1.93l-.12-4.04zM91.15 119.92l-.12 4.04a2 2 0 0 1-2 1.93H74.91a2 2 0 0 1-1.99-1.787l-.45-4.183z" opacity="1" data-original="#5a9fba"></path><path fill="#f4ecdc" d="M90.92 24.17c-1.44-.81-5.18-2.91-6.68-3.72a8.492 8.492 0 0 1-4.21-6.11l-.62-3.55V7.91h9.48l.39 2.88c.51 3.81 1.11 8.56 1.64 13.38zM37.08 24.17c1.44-.81 5.18-2.91 6.68-3.72a8.492 8.492 0 0 0 4.21-6.11l.62-3.55V7.91h-9.48l-.39 2.88c-.51 3.81-1.11 8.56-1.64 13.38z" opacity="1" data-original="#f4ecdc"></path><path fill="#5a9fba" d="M60.076 10.79v23.752a.424.424 0 0 0 .424.424 7.424 7.424 0 0 0 7.424-7.423V10.791z" opacity="1" data-original="#5a9fba"></path><path fill="#4f8eaa" d="M89.28 10.79H38.72c.38-2.84.71-5.18.92-6.65a1.993 1.993 0 0 1 1.98-1.7h44.76a1.993 1.993 0 0 1 1.98 1.7c.21 1.47.54 3.81.92 6.65z" opacity="1" data-original="#4f8eaa"></path><path fill="#5a9fba" d="M89.28 10.79h-29.2V2.44h26.3a1.993 1.993 0 0 1 1.98 1.7c.21 1.47.54 3.81.92 6.65z" opacity="1" data-original="#5a9fba"></path><g fill="#3a2e51"><path d="M52.291 13.482a1.472 1.472 0 0 1-.237-.018 1.5 1.5 0 0 1-1.246-1.716l.983-6.2a1.5 1.5 0 1 1 2.962.469l-.982 6.2a1.5 1.5 0 0 1-1.48 1.265zM75.709 13.482a1.5 1.5 0 0 1-1.48-1.265l-.982-6.2a1.5 1.5 0 1 1 2.962-.469l.983 6.2a1.5 1.5 0 0 1-1.246 1.716 1.472 1.472 0 0 1-.237.018z" fill="#3a2e51" opacity="1" data-original="#3a2e51"></path><path d="M87.692 20.752 85 19.162a7.335 7.335 0 0 1-3.5-5.073l-.31-1.8h4.1a1.5 1.5 0 0 0 0-3H43.2a1.5 1.5 0 0 0 0 3h3.607l-.31 1.8A7.337 7.337 0 0 1 43 19.162l-2.689 1.59a1.5 1.5 0 1 0 1.526 2.582l2.689-1.59a10.326 10.326 0 0 0 4.926-7.144l.4-2.308h16.572V25.87a9.292 9.292 0 0 1-4.269 7.836l-2.892 1.867a1.5 1.5 0 1 0 1.627 2.52l2.892-1.867a12.279 12.279 0 0 0 5.642-10.356V12.291h8.725l.4 2.308a10.326 10.326 0 0 0 4.929 7.145l2.689 1.59a1.5 1.5 0 1 0 1.526-2.582z" fill="#3a2e51" opacity="1" data-original="#3a2e51"></path><circle cx="64" cy="6.632" r="1.276" fill="#3a2e51" opacity="1" data-original="#3a2e51"></circle><path d="M93.7 39.229c-.512-11.419-3.08-29.9-3.855-35.3A3.512 3.512 0 0 0 86.379.938H41.621a3.512 3.512 0 0 0-3.463 2.994c-.775 5.393-3.343 23.878-3.855 35.3-.828 18.478.829 73.86 1.169 84.774a3.482 3.482 0 0 0 3.5 3.384h14.116a3.5 3.5 0 0 0 3.481-3.129L64 54.519l7.431 69.739a3.5 3.5 0 0 0 3.481 3.129h14.117a3.482 3.482 0 0 0 3.5-3.384c.339-10.914 1.996-66.296 1.171-84.774zm-4.168 84.68a.5.5 0 0 1-.5.478h-14.12a.5.5 0 0 1-.5-.448l-.269-2.519H86.93a1.5 1.5 0 0 0 0-3h-13.1l-8.046-75.473-.007-.053a1.8 1.8 0 0 0-3.561.053l-8.042 75.473H41.07a1.5 1.5 0 0 0 0 3h12.784l-.269 2.519a.5.5 0 0 1-.5.448H38.971a.5.5 0 0 1-.5-.478c-.34-10.9-1.994-66.176-1.171-84.545.506-11.283 3.057-29.647 3.827-35.006a.492.492 0 0 1 .494-.42h16.955v25.546a1.5 1.5 0 0 0 3 0V3.938h24.8a.492.492 0 0 1 .494.419c.77 5.36 3.321 23.724 3.827 35.007.826 18.369-.828 73.65-1.168 84.545z" fill="#3a2e51" opacity="1" data-original="#3a2e51"></path></g></g></svg>