<svg xmlns="http://www.w3.org/2000/svg" version="1.1" xmlns:xlink="http://www.w3.org/1999/xlink" width="512" height="512" x="0" y="0" viewBox="0 0 512.003 512.003" style="enable-background:new 0 0 512 512" xml:space="preserve" class=""><g><path d="M375.456 8.532H136.547l-25.598 486.352 85.325 8.532 59.728-366.896 59.727 366.896 85.325-8.532z" style="" fill="#4398d1" data-original="#4398d1"></path><path d="M379.979 93.857h-2.474a69.271 69.271 0 0 1-34.13-42.662h34.13l-.853-17.065H264.534V8.532h-17.065V34.13h-17.065V8.532h-17.065V34.13h-78.158l-.853 17.065h34.13a69.269 69.269 0 0 1-34.13 42.662h-2.474l-.853 17.065h5.546a8.565 8.565 0 0 0 3.84-.939 85.748 85.748 0 0 0 45.734-58.789h27.219v30.12c-.119 26.63 14.949 50.999 38.823 62.799 1.186.606 2.5.93 3.84.939a8.466 8.466 0 0 0 4.522-1.28 8.517 8.517 0 0 0 4.01-7.253V51.195h61.349a85.748 85.748 0 0 0 45.734 58.789c1.186.606 2.5.93 3.84.939h5.375l-.854-17.066zm-132.51 26.536a52.89 52.89 0 0 1-17.065-39.079v-30.12h17.065v69.199z" style="" fill="#126099" data-original="#126099" class=""></path><path d="m110.949 494.884 85.325 8.532 27.56-169.284a507.285 507.285 0 0 1-107.339 55.973l-5.546 104.779zM280.831 288.91l34.898 214.507 85.325-8.532-17.065-325.515a690.159 690.159 0 0 1-103.158 119.54z" style="" fill="#3e8cc7" data-original="#3e8cc7" class=""></path><path d="M195.421 511.949a8.525 8.525 0 0 0 9.386-7.167l51.195-315.19 51.195 315.19a8.537 8.537 0 0 0 8.533 7.167h.853l85.325-8.533c4.377-.444 7.705-4.138 7.679-8.532L383.989 8.532A8.535 8.535 0 0 0 375.457 0h-238.91a8.535 8.535 0 0 0-8.532 8.532l-25.597 486.351c-.026 4.394 3.302 8.089 7.679 8.532l85.324 8.534zm34.983-460.754h17.065v69.198a52.89 52.89 0 0 1-17.065-39.079V51.195zm0-17.065V17.065h17.065V34.13h-17.065zm92.492 459.986-58.362-358.279V51.195h61.349a85.748 85.748 0 0 0 45.734 58.789h.683l20.222 377.221-69.626 6.911zM371.19 90.018a69 69 0 0 1-27.731-38.823h25.597l2.134 38.823zm-2.901-55.888H264.534V17.065h102.39l1.365 17.065zm-154.95-17.065V34.13h-69.625l1.365-17.065h68.26zm-44.795 34.13a69 69 0 0 1-27.731 38.823l2.048-38.823h25.683zm-28.84 58.959h.683a85.74 85.74 0 0 0 45.734-58.959h27.219v30.12a69.797 69.797 0 0 0 33.277 59.727l-57.509 353.245-69.198-6.911 19.794-377.222z" fill="#000000" opacity="1" data-original="#000000" class=""></path></g></svg>