<svg xmlns="http://www.w3.org/2000/svg" version="1.1" xmlns:xlink="http://www.w3.org/1999/xlink" width="512" height="512" x="0" y="0" viewBox="0 0 511.998 511.998" style="enable-background:new 0 0 512 512" xml:space="preserve" class=""><g><path d="M395.396 475.631c.871 0 1.721.091 2.551.243l-9.671-454.35c-.168-7.846-6.577-14.12-14.426-14.12H136.138c-8.067 0-14.655 6.448-14.828 14.513l-9.678 454.633c1.55-.584 3.22-.92 4.969-.92 109.264.377 104.614-.919 109.447 1.03 3.272-70.839 10.991-243.793 10.991-270.381 0-14.004 3.059-24.642 6.637-32.295 4.445-9.508 17.792-9.508 22.238 0 3.579 7.654 6.638 18.293 6.638 32.295 0 26.742 7.809 201.508 11.048 271.596 6.48-4.149 4.091-1.426 111.796-2.244z" style="" fill="#5085ba" data-original="#5085ba" class=""></path><path d="M146.345 21.918c.173-8.065 6.76-14.513 14.828-14.513h-25.035c-8.067 0-14.655 6.447-14.828 14.513l-9.678 454.633c3.248-1.224 3.069-.907 25.053-.866l9.66-453.767zM296.332 191.378c-6.799-32.514-42.571-24.477-42.571-24.477l.006.021c4.778-.396 9.754 1.94 12.149 7.062 5.162 11.04 6.556 21.405 6.643 33.53.216 30.447 7.85 201.267 11.043 270.362 3.721-2.383 4.525-2.5 24.928-2.322-14.043-304.42-9.81-270.559-12.198-284.176z" style="" fill="#3a77aa" data-original="#3a77aa"></path><path d="m121.31 21.918-.745 34.753h268.463l-.753-35.147c-.168-7.846-6.577-14.12-14.426-14.12H136.137c-8.067.001-14.654 6.448-14.827 14.514z" style="" fill="#3a77aa" data-original="#3a77aa"></path><path d="m145.605 56.671.74-34.753c.173-8.065 6.76-14.513 14.828-14.513h-25.035c-8.064 0-14.655 6.444-14.828 14.513l-.74 34.753h25.035zM173.706 7.405h31.963v49.262h-31.963zM303.922 7.405h31.963v49.262h-31.963z" style="" fill="#2b709e" data-original="#2b709e"></path><path d="M234.985 486.837v3.551c0 7.813-6.393 14.206-14.207 14.206H116.601c-7.813 0-14.206-6.392-14.206-14.206v-3.551c0-7.813 6.392-14.206 14.206-14.206h104.178c7.814-.001 14.206 6.392 14.206 14.206zM409.602 486.837v3.551c0 7.813-6.392 14.206-14.206 14.206H291.218c-7.813 0-14.206-6.392-14.206-14.206v-3.551c0-7.813 6.392-14.206 14.206-14.206h104.179c7.813-.001 14.205 6.392 14.205 14.206z" style="" fill="#9cd7f2" data-original="#9cd7f2"></path><path d="M121.403 490.388v-3.551c0-7.813 6.392-14.207 14.206-14.207H116.6c-7.813 0-14.206 6.393-14.206 14.207v3.551c0 7.813 6.392 14.206 14.206 14.206h19.009c-7.813 0-14.206-6.393-14.206-14.206zM296.02 490.388v-3.551c0-7.813 6.392-14.207 14.206-14.207h-19.009c-7.813 0-14.206 6.393-14.206 14.207v3.551c0 7.813 6.392 14.206 14.206 14.206h19.009c-7.813 0-14.206-6.393-14.206-14.206z" style="" fill="#71c5db" data-original="#71c5db"></path><path d="M253.761 56.671v110.231l22.279-21.399a21.54 21.54 0 0 0 6.618-15.535V56.671h-28.897z" style="" fill="#3a77aa" data-original="#3a77aa"></path><path d="m335.89 56.671 54.639 70.041-1.501-70.041zM173.703 56.671l-54.639 70.041 1.501-70.041z" style="" fill="#2b709e" data-original="#2b709e"></path><path d="M119.08 126.692 144.817 93.7l.788-37.029H120.57z" style="" fill="#23688e" data-original="#23688e"></path><path d="M255.832 24.63h-2.07c-4.143 0-7.5 3.357-7.5 7.5s3.357 7.5 7.5 7.5h2.07c4.143 0 7.5-3.357 7.5-7.5s-3.358-7.5-7.5-7.5z" fill="#000000" opacity="1" data-original="#000000"></path><path d="m405.277 467.466-.775-36.176c-.089-4.141-3.498-7.459-7.659-7.337a7.5 7.5 0 0 0-7.337 7.658l.716 33.435c-103.885.002-99.086-.006-99.573.007-3.509-76.226-10.602-233.417-10.602-258.75 0-12.189-3.206-34.315-12.472-42.231l13.653-13.113c5.669-5.445 8.921-13.078 8.921-20.939V64.254h42.048l50.833 65.164 5.726 267.194a7.5 7.5 0 0 0 14.996-.322L395.72 21.461C395.466 9.601 385.606.007 373.801.007c-255.03 0-237.849-.039-239.288.07-11.434.863-20.405 10.438-20.649 21.776l-2.73 127.425a7.5 7.5 0 0 0 14.996.322l.433-20.183 50.833-65.164h68.864v97.066c-4.037 1.932-7.365 5.228-9.372 9.522-4.871 10.416-7.341 22.347-7.341 35.461 0 25.406-7.129 183.333-10.602 258.743h-50.442c-4.143 0-7.5 3.357-7.5 7.5s3.357 7.5 7.5 7.5c54.368.163 52.482-.388 54.664.442 5.73 2.395 4.039 8.144 4.325 9.808a6.706 6.706 0 0 1-6.699 6.699H116.656a6.706 6.706 0 0 1-6.699-6.699c.251-1.306-1.327-7.366 4.041-9.697 3.511-1.135 2.848-.183 19.504-.553 4.143 0 7.5-3.357 7.5-7.5s-3.357-7.5-7.5-7.5h-14.13l6.009-280.446a7.5 7.5 0 0 0-7.337-7.659c-4.133-.04-7.57 3.196-7.659 7.337l-6.1 284.655c-11.26 7.844-9.087 20.225-9.328 21.364 0 11.966 9.734 21.7 21.7 21.7h104.138c11.966 0 21.7-9.734 21.7-21.7-.254-1.257 1.869-13.012-8.73-20.938 3.41-73.951 10.785-236.929 10.785-263.056 0-10.9 1.995-20.694 5.929-29.106 1.697-3.63 6.838-3.849 8.639 0 3.935 8.414 5.93 18.207 5.93 29.106 0 26.28 7.465 191.126 10.875 265.053-7.998 7.942-6.16 17.361-6.419 18.942 0 11.967 9.734 21.701 21.701 21.701h104.137c11.967 0 21.701-9.734 21.701-21.701-.242-.959 2.171-15.62-11.766-22.831zM382.492 104.34 351.22 64.254h30.412l.86 40.086zm-39.134-89.333c31.758.048 30.568-.116 31.81.138 3.099.633 5.484 3.368 5.554 6.637l.589 27.47h-37.954l.001-34.245zM127.101 104.34l.858-40.087h30.412l-31.27 40.087zm39.134-55.087h-37.953c.64-29.878.08-28.997 2.316-31.634a7.387 7.387 0 0 1 4.249-2.482c1.303-.246.08-.082 31.387-.129l.001 34.245zm145.172-34.246h16.951v34.246h-16.951V15.007zm-113.22 34.246h-16.951V15.007h16.951v34.246zm15 0V15.007h83.219v34.246h-83.219zm48.074 100.084V64.254h13.887v65.768c0 9.041-7.544 12.229-13.887 19.315zm140.78 340.961c0 3.694-3.006 6.7-6.7 6.7H291.204a6.708 6.708 0 0 1-6.7-6.7c.265-1.799-1.097-6.316 2.917-9.074 1.149-.686 2.269-1.176 3.784-1.176 111.257.042 104.104-.107 105.331.12a6.681 6.681 0 0 1 5.506 6.58l-.001 3.55z" fill="#000000" opacity="1" data-original="#000000"></path></g></svg>